<svg width="25" height="25" viewBox="0 0 25 25" fill="none" xmlns="http://www.w3.org/2000/svg">
  <g id="card_giftcard">
    <path id="Vector"
      d="M20.5 7H18.32C18.43 6.69 18.5 6.35 18.5 6C18.5 4.34 17.16 3 15.5 3C14.45 3 13.54 3.54 13 4.35L12.5 5.02L12 4.34C11.46 3.54 10.55 3 9.5 3C7.84 3 6.5 4.34 6.5 6C6.5 6.35 6.57 6.69 6.68 7H4.5C3.39 7 2.51 7.89 2.51 9L2.5 20C2.5 21.11 3.39 22 4.5 22H20.5C21.61 22 22.5 21.11 22.5 20V9C22.5 7.89 21.61 7 20.5 7ZM15.5 5C16.05 5 16.5 5.45 16.5 6C16.5 6.55 16.05 7 15.5 7C14.95 7 14.5 6.55 14.5 6C14.5 5.45 14.95 5 15.5 5ZM9.5 5C10.05 5 10.5 5.45 10.5 6C10.5 6.55 10.05 7 9.5 7C8.95 7 8.5 6.55 8.5 6C8.5 5.45 8.95 5 9.5 5ZM20.5 20H4.5V18H20.5V20ZM20.5 15H4.5V9H9.58L7.5 11.83L9.12 13L12.5 8.4L15.88 13L17.5 11.83L15.42 9H20.5V15Z"
      fill="#F3F4F6" />
  </g>
</svg>