<svg width="35" height="35" viewBox="0 0 35 35" fill="none" xmlns="http://www.w3.org/2000/svg">
<g clip-path="url(#clip0_464_20809)">
<path d="M32.0833 29.1769C32.0807 29.5599 31.9274 29.9264 31.6568 30.1974C31.3861 30.4683 31.0197 30.6219 30.6367 30.625H4.36333C3.97952 30.6246 3.61156 30.4719 3.3403 30.2003C3.06904 29.9288 2.91667 29.5607 2.91667 29.1769V27.7083H29.1667V10.6458L17.5 21.1458L2.91667 8.02083V5.83333C2.91667 5.44656 3.07031 5.07563 3.3438 4.80214C3.61729 4.52865 3.98823 4.375 4.375 4.375H30.625C31.0118 4.375 31.3827 4.52865 31.6562 4.80214C31.9297 5.07563 32.0833 5.44656 32.0833 5.83333V29.1769ZM6.46625 7.29167L17.5 17.2229L28.5338 7.29167H6.46625ZM0 21.875H11.6667V24.7917H0V21.875ZM0 14.5833H7.29167V17.5H0V14.5833Z" fill="white" fill-opacity="0.87"/>
</g>
<defs>
<clipPath id="clip0_464_20809">
<rect width="35" height="35" fill="white"/>
</clipPath>
</defs>
</svg>
