<svg width="35" height="35" viewBox="0 0 35 35" fill="none" xmlns="http://www.w3.org/2000/svg">
<g clip-path="url(#clip0_464_20824)">
<path d="M13.6588 15.5779C15.0272 17.9819 17.0181 19.9728 19.4221 21.3412L20.7113 19.5358C20.9186 19.2455 21.2251 19.0413 21.5728 18.9617C21.9206 18.8822 22.2854 18.9329 22.5983 19.1042C24.6609 20.2313 26.9386 20.9093 29.2819 21.0933C29.6476 21.1223 29.9889 21.2881 30.2379 21.5575C30.4868 21.827 30.625 22.1804 30.625 22.5473V29.0544C30.6251 29.4155 30.4912 29.7637 30.2493 30.0318C30.0074 30.2998 29.6746 30.4686 29.3154 30.5054C28.5425 30.5856 27.7638 30.625 26.9792 30.625C14.4958 30.625 4.375 20.5042 4.375 8.02083C4.375 7.23625 4.41438 6.4575 4.49458 5.68458C4.53141 5.32539 4.70019 4.99263 4.96824 4.75072C5.23628 4.5088 5.58455 4.37492 5.94563 4.375H12.4527C12.8196 4.37495 13.173 4.51318 13.4425 4.76212C13.7119 5.01105 13.8777 5.35241 13.9067 5.71812C14.0907 8.06136 14.7687 10.3391 15.8958 12.4017C16.0671 12.7146 16.1178 13.0794 16.0383 13.4272C15.9587 13.7749 15.7545 14.0814 15.4642 14.2888L13.6588 15.5779ZM9.98083 14.6198L12.7517 12.6408C11.9653 10.9435 11.4266 9.14206 11.1519 7.29167H7.30625C7.2975 7.53375 7.29312 7.77729 7.29312 8.02083C7.29167 18.8942 16.1058 27.7083 26.9792 27.7083C27.2227 27.7083 27.4663 27.704 27.7083 27.6938V23.8481C25.8579 23.5734 24.0565 23.0347 22.3592 22.2483L20.3802 25.0192C19.5835 24.7096 18.8096 24.3441 18.0644 23.9254L17.9798 23.8773C15.1194 22.2494 12.7506 19.8806 11.1227 17.0202L11.0746 16.9356C10.6559 16.1904 10.2904 15.4165 9.98083 14.6198Z" fill="white" fill-opacity="0.87"/>
</g>
<defs>
<clipPath id="clip0_464_20824">
<rect width="35" height="35" fill="white"/>
</clipPath>
</defs>
</svg>
