<svg width="239" height="45" viewBox="0 0 239 45" fill="none" xmlns="http://www.w3.org/2000/svg">
<g clip-path="url(#clip0_464_20668)">
<path d="M44 1H0V45H44V1Z" fill="#059669"/>
<path d="M22.0893 9.86397L8.86377 22.9108L21.9106 36.1363L35.1361 23.0895L22.0893 9.86397Z" fill="white"/>
</g>
<path d="M71.0293 34H58.6953V12.584H71.0293V16.3047H63.2363V21.0068H70.4873V24.7275H63.2363V30.25H71.0293V34ZM79.6279 34H75.1602V11.207H79.6279V34ZM91.083 17.3154C92.5967 17.3154 93.9004 17.6084 94.9941 18.1943C96.0879 18.7705 96.9326 19.6104 97.5283 20.7139C98.124 21.8174 98.4219 23.165 98.4219 24.7568V26.9248H87.8604C87.9092 28.1846 88.2852 29.1758 88.9883 29.8984C89.7012 30.6113 90.6875 30.9678 91.9473 30.9678C92.9922 30.9678 93.9492 30.8604 94.8184 30.6455C95.6875 30.4307 96.5811 30.1084 97.499 29.6787V33.1357C96.6885 33.5361 95.8389 33.8291 94.9502 34.0146C94.0713 34.2002 93.002 34.293 91.7422 34.293C90.1016 34.293 88.6465 33.9902 87.377 33.3848C86.1172 32.7793 85.126 31.8564 84.4033 30.6162C83.6904 29.376 83.334 27.8135 83.334 25.9287C83.334 24.0146 83.6562 22.4229 84.3008 21.1533C84.9551 19.874 85.8633 18.917 87.0254 18.2822C88.1875 17.6377 89.54 17.3154 91.083 17.3154ZM91.1123 20.4941C90.2432 20.4941 89.5205 20.7725 88.9443 21.3291C88.3779 21.8857 88.0508 22.7598 87.9629 23.9512H94.2324C94.2227 23.2871 94.1006 22.6963 93.8662 22.1787C93.6416 21.6611 93.2998 21.251 92.8408 20.9482C92.3916 20.6455 91.8154 20.4941 91.1123 20.4941ZM121.288 17.3154C123.144 17.3154 124.545 17.7939 125.492 18.751C126.449 19.6982 126.928 21.2217 126.928 23.3213V34H122.445V24.4346C122.445 23.2627 122.245 22.3789 121.845 21.7832C121.444 21.1875 120.824 20.8896 119.984 20.8896C118.803 20.8896 117.963 21.3145 117.465 22.1641C116.967 23.0039 116.718 24.21 116.718 25.7822V34H112.25V24.4346C112.25 23.6533 112.162 22.999 111.986 22.4717C111.811 21.9443 111.542 21.5488 111.181 21.2852C110.819 21.0215 110.355 20.8896 109.789 20.8896C108.959 20.8896 108.305 21.0996 107.826 21.5195C107.357 21.9297 107.021 22.54 106.815 23.3506C106.62 24.1514 106.522 25.1328 106.522 26.2949V34H102.055V17.623H105.468L106.068 19.7178H106.317C106.649 19.1514 107.064 18.6924 107.562 18.3408C108.07 17.9893 108.627 17.7305 109.232 17.5645C109.838 17.3984 110.453 17.3154 111.078 17.3154C112.279 17.3154 113.295 17.5107 114.125 17.9014C114.965 18.292 115.609 18.8975 116.059 19.7178H116.454C116.942 18.8779 117.631 18.2676 118.52 17.8867C119.418 17.5059 120.341 17.3154 121.288 17.3154ZM138.28 17.3154C139.794 17.3154 141.098 17.6084 142.191 18.1943C143.285 18.7705 144.13 19.6104 144.726 20.7139C145.321 21.8174 145.619 23.165 145.619 24.7568V26.9248H135.058C135.106 28.1846 135.482 29.1758 136.186 29.8984C136.898 30.6113 137.885 30.9678 139.145 30.9678C140.189 30.9678 141.146 30.8604 142.016 30.6455C142.885 30.4307 143.778 30.1084 144.696 29.6787V33.1357C143.886 33.5361 143.036 33.8291 142.147 34.0146C141.269 34.2002 140.199 34.293 138.939 34.293C137.299 34.293 135.844 33.9902 134.574 33.3848C133.314 32.7793 132.323 31.8564 131.601 30.6162C130.888 29.376 130.531 27.8135 130.531 25.9287C130.531 24.0146 130.854 22.4229 131.498 21.1533C132.152 19.874 133.061 18.917 134.223 18.2822C135.385 17.6377 136.737 17.3154 138.28 17.3154ZM138.31 20.4941C137.44 20.4941 136.718 20.7725 136.142 21.3291C135.575 21.8857 135.248 22.7598 135.16 23.9512H141.43C141.42 23.2871 141.298 22.6963 141.063 22.1787C140.839 21.6611 140.497 21.251 140.038 20.9482C139.589 20.6455 139.013 20.4941 138.31 20.4941ZM158.554 17.3154C160.302 17.3154 161.708 17.7939 162.772 18.751C163.837 19.6982 164.369 21.2217 164.369 23.3213V34H159.901V24.4346C159.901 23.2627 159.687 22.3789 159.257 21.7832C158.837 21.1875 158.173 20.8896 157.265 20.8896C155.897 20.8896 154.965 21.3535 154.467 22.2812C153.969 23.209 153.72 24.5469 153.72 26.2949V34H149.252V17.623H152.665L153.266 19.7178H153.515C153.866 19.1514 154.301 18.6924 154.818 18.3408C155.346 17.9893 155.927 17.7305 156.562 17.5645C157.206 17.3984 157.87 17.3154 158.554 17.3154ZM175.868 30.7334C176.356 30.7334 176.83 30.6846 177.289 30.5869C177.758 30.4893 178.222 30.3672 178.681 30.2207V33.5459C178.202 33.7607 177.606 33.9365 176.894 34.0732C176.19 34.2197 175.419 34.293 174.579 34.293C173.603 34.293 172.724 34.1367 171.942 33.8242C171.171 33.502 170.561 32.9502 170.111 32.1689C169.672 31.3779 169.452 30.2793 169.452 28.873V20.9775H167.313V19.0879L169.774 17.5938L171.063 14.1367H173.92V17.623H178.505V20.9775H173.92V28.873C173.92 29.498 174.096 29.9668 174.447 30.2793C174.809 30.582 175.282 30.7334 175.868 30.7334ZM196.889 25.7822C196.889 27.1494 196.703 28.3604 196.332 29.415C195.971 30.4697 195.438 31.3633 194.735 32.0957C194.042 32.8184 193.202 33.3652 192.216 33.7363C191.239 34.1074 190.136 34.293 188.905 34.293C187.753 34.293 186.693 34.1074 185.727 33.7363C184.77 33.3652 183.935 32.8184 183.222 32.0957C182.519 31.3633 181.972 30.4697 181.581 29.415C181.2 28.3604 181.01 27.1494 181.01 25.7822C181.01 23.9658 181.332 22.4277 181.977 21.168C182.621 19.9082 183.539 18.9512 184.73 18.2969C185.922 17.6426 187.343 17.3154 188.993 17.3154C190.526 17.3154 191.884 17.6426 193.065 18.2969C194.257 18.9512 195.189 19.9082 195.863 21.168C196.547 22.4277 196.889 23.9658 196.889 25.7822ZM185.565 25.7822C185.565 26.8564 185.683 27.7598 185.917 28.4922C186.151 29.2246 186.518 29.7764 187.016 30.1475C187.514 30.5186 188.163 30.7041 188.964 30.7041C189.755 30.7041 190.395 30.5186 190.883 30.1475C191.381 29.7764 191.742 29.2246 191.967 28.4922C192.201 27.7598 192.318 26.8564 192.318 25.7822C192.318 24.6982 192.201 23.7998 191.967 23.0869C191.742 22.3643 191.381 21.8223 190.883 21.4609C190.385 21.0996 189.735 20.9189 188.935 20.9189C187.753 20.9189 186.894 21.3242 186.356 22.1348C185.829 22.9453 185.565 24.1611 185.565 25.7822ZM226.156 12.584V26.4414C226.156 27.916 225.829 29.249 225.175 30.4404C224.53 31.6221 223.549 32.5596 222.23 33.2529C220.922 33.9463 219.271 34.293 217.279 34.293C214.447 34.293 212.289 33.5703 210.805 32.125C209.32 30.6797 208.578 28.7656 208.578 26.3828V12.584H213.104V25.6943C213.104 27.4619 213.466 28.7021 214.188 29.415C214.911 30.1279 215.98 30.4844 217.396 30.4844C218.393 30.4844 219.198 30.3135 219.813 29.9717C220.438 29.6299 220.897 29.1025 221.19 28.3896C221.483 27.6768 221.63 26.7686 221.63 25.665V12.584H226.156ZM231.4 34V12.584H235.941V34H231.4Z" fill="white"/>
<defs>
<clipPath id="clip0_464_20668">
<rect width="44" height="44" fill="white" transform="translate(0 1)"/>
</clipPath>
</defs>
</svg>
